<svg width="29" height="35" viewBox="0 0 29 35" fill="none" xmlns="http://www.w3.org/2000/svg">
<g clip-path="url(#clip0_164_717)">
<path d="M28.1818 14.8024C28.1818 6.97097 21.875 0.625763 14.0909 0.625763C6.30682 0.625763 0 6.97097 0 14.8024C0 21.8782 5.15283 27.7432 11.8892 28.8076V18.9005H8.30966V14.8024H11.8892V11.679C11.8892 8.12626 13.9915 6.16381 17.2113 6.16381C18.7535 6.16381 20.3659 6.44048 20.3659 6.44048V9.92749H18.5886C16.8386 9.92749 16.2926 11.0205 16.2926 12.1415V14.8024H20.2006L19.5755 18.9005H16.2926V28.8076C23.0289 27.7432 28.1818 21.8782 28.1818 14.8024Z" fill="white"/>
</g>
<defs>
<clipPath id="clip0_164_717">
<rect width="28.1818" height="34.5217" fill="white"/>
</clipPath>
</defs>
</svg>
