<svg width="29" height="29" viewBox="0 0 29 29" fill="none" xmlns="http://www.w3.org/2000/svg">
<g clip-path="url(#clip0_164_715)">
<path d="M14.094 6.86544C10.0955 6.86544 6.87021 10.0914 6.87021 14.0909C6.87021 18.0903 10.0955 21.3163 14.094 21.3163C18.0926 21.3163 21.3179 18.0903 21.3179 14.0909C21.3179 10.0914 18.0926 6.86544 14.094 6.86544ZM14.094 18.7884C11.5101 18.7884 9.39761 16.6818 9.39761 14.0909C9.39761 11.5001 11.5038 9.39342 14.094 9.39342C16.6843 9.39342 18.7905 11.5001 18.7905 14.0909C18.7905 16.6818 16.678 18.7884 14.094 18.7884ZM23.2983 6.56989C23.2983 7.50688 22.5439 8.2552 21.6133 8.2552C20.6766 8.2552 19.9285 7.50058 19.9285 6.56989C19.9285 5.6392 20.6829 4.88457 21.6133 4.88457C22.5439 4.88457 23.2983 5.6392 23.2983 6.56989ZM28.0828 8.28035C27.976 6.02279 27.4604 4.02305 25.8069 2.37547C24.1597 0.727891 22.1603 0.212236 19.9033 0.0990436C17.5771 -0.0330145 10.6047 -0.0330145 8.27851 0.0990436C6.02774 0.205947 4.02845 0.721602 2.37494 2.36919C0.721442 4.01677 0.212189 6.01651 0.0990214 8.27407C-0.0330071 10.6008 -0.0330071 17.5747 0.0990214 19.9014C0.205902 22.1591 0.721442 24.1587 2.37494 25.8064C4.02845 27.4539 6.02144 27.9696 8.27851 28.0828C10.6047 28.2148 17.5771 28.2148 19.9033 28.0828C22.1603 27.9758 24.1597 27.4602 25.8069 25.8064C27.454 24.1587 27.9696 22.1591 28.0828 19.9014C28.2148 17.5747 28.2148 10.6071 28.0828 8.28035ZM25.0776 22.3979C24.5872 23.6306 23.6378 24.58 22.3993 25.0769C20.5445 25.8126 16.1437 25.6428 14.094 25.6428C12.0445 25.6428 7.63723 25.8064 5.78883 25.0769C4.55656 24.5864 3.60722 23.6368 3.11053 22.3979C2.37494 20.5429 2.54469 16.141 2.54469 14.0909C2.54469 12.0409 2.38124 7.63264 3.11053 5.78382C3.60092 4.55129 4.55026 3.60172 5.78883 3.10493C7.64352 2.36919 12.0445 2.53897 14.094 2.53897C16.1437 2.53897 20.5509 2.37547 22.3993 3.10493C23.6316 3.59544 24.5809 4.54499 25.0776 5.78382C25.8131 7.63894 25.6433 12.0409 25.6433 14.0909C25.6433 16.141 25.8131 20.5492 25.0776 22.3979Z" fill="white"/>
</g>
<defs>
<clipPath id="clip0_164_715">
<rect width="28.1818" height="28.1818" fill="white"/>
</clipPath>
</defs>
</svg>
