<svg width="31" height="23" viewBox="0 0 31 23" fill="none" xmlns="http://www.w3.org/2000/svg">
<g clip-path="url(#clip0_164_719)">
<path d="M30.3522 3.5276C29.9957 2.13906 28.9453 1.04549 27.6116 0.674367C25.194 0 15.5 0 15.5 0C15.5 0 5.80607 0 3.3885 0.674367C2.05475 1.04555 1.0043 2.13906 0.647775 3.5276C0 6.04441 0 11.2955 0 11.2955C0 11.2955 0 16.5467 0.647775 19.0634C1.0043 20.452 2.05475 21.4999 3.3885 21.8711C5.80607 22.5455 15.5 22.5455 15.5 22.5455C15.5 22.5455 25.194 22.5455 27.6116 21.8711C28.9453 21.4999 29.9957 20.452 30.3522 19.0634C31 16.5467 31 11.2955 31 11.2955C31 11.2955 31 6.04441 30.3522 3.5276ZM12.3295 16.0631V6.52791L20.4318 11.2956L12.3295 16.0631Z" fill="white"/>
</g>
<defs>
<clipPath id="clip0_164_719">
<rect width="31" height="22.5455" fill="white"/>
</clipPath>
</defs>
</svg>
